<svg width="25" height="25" viewBox="0 0 25 25" fill="none" xmlns="http://www.w3.org/2000/svg">
<path fill-rule="evenodd" clip-rule="evenodd" d="M12.0736 16.4527L17.3522 11.0666C17.8006 10.5324 17.7704 9.73599 17.283 9.23863C16.7956 8.74127 16.0151 8.71051 15.4915 9.16802L11.1499 13.5981L9.44755 11.8611C8.92397 11.4035 8.14349 11.4343 7.65605 11.9317C7.16862 12.429 7.13847 13.2254 7.58685 13.7596L10.2261 16.4527C10.7408 16.9748 11.5721 16.9748 12.0868 16.4527H12.0736Z" fill="#3551B6"/>
<path fill-rule="evenodd" clip-rule="evenodd" d="M6.326 21.479C6.93198 21.0544 7.60478 21.0544 8.21954 21.3324C12.4079 23.2295 17.3543 21.7944 19.8764 17.9503C22.3984 14.1062 21.7449 8.99823 18.3363 5.91265C14.9276 2.82707 9.7792 2.68304 6.2033 5.57323C2.6274 8.46341 1.68925 13.5268 3.9924 17.5059C4.32364 18.139 4.09685 18.9207 3.47816 19.2782C2.85947 19.6358 2.06885 19.4422 1.68548 18.8392C0.30468 16.4546 -0.213267 13.6676 0.218652 10.9463C1.01774 5.95866 4.85525 2.00544 9.81758 1.05789C14.7799 0.110338 19.8044 2.37137 22.3856 6.71353C24.9668 11.0557 24.5519 16.5491 21.3478 20.4544C18.1437 24.3598 12.8366 25.8408 8.07286 24.1589C8.07286 24.1589 5.29764 23.499 6.326 21.479Z" fill="#F56962"/>
</svg>
