<svg width="48" height="48" viewBox="0 0 48 48" fill="none" xmlns="http://www.w3.org/2000/svg">
<path opacity="0.5" fill-rule="evenodd" clip-rule="evenodd" d="M7.02945 29.6569C6.2484 30.4379 6.2484 31.7042 7.02945 32.4853L15.5147 40.9706C16.2958 41.7516 17.5621 41.7516 18.3432 40.9706L26.8284 32.4853C27.6095 31.7042 27.6095 30.4379 26.8284 29.6569L24 26.8284L19.0503 31.7782C18.6597 32.1687 18.0266 32.1687 17.636 31.7782L16.2218 30.364C15.8313 29.9734 15.8313 29.3403 16.2218 28.9498L21.1716 24L18.3432 21.1716C17.5621 20.3905 16.2958 20.3905 15.5147 21.1716L7.02945 29.6569Z" fill="white"/>
<path fill-rule="evenodd" clip-rule="evenodd" d="M21.1716 15.5147C20.3906 16.2958 20.3906 17.5621 21.1716 18.3431L24 21.1716L28.9498 16.2218C29.3403 15.8313 29.9735 15.8313 30.364 16.2218L31.7782 17.636C32.1687 18.0266 32.1687 18.6597 31.7782 19.0502L26.8285 24L29.6569 26.8284C30.4379 27.6095 31.7043 27.6095 32.4853 26.8284L40.9706 18.3431C41.7516 17.5621 41.7516 16.2958 40.9706 15.5147L32.4853 7.02943C31.7043 6.24838 30.4379 6.24838 29.6569 7.02943L21.1716 15.5147Z" fill="white"/>
</svg>
